<mxfile host="app.diagrams.net" modified="2023-12-29T16:36:17.475Z" agent="Mozilla/5.0 (Windows NT 10.0; Win64; x64) AppleWebKit/537.36 (KHTML, like Gecko) Chrome/120.0.0.0 Safari/537.36" etag="nskxPQ9RDwgYPvGV-z-L" version="22.1.16" type="device">
  <diagram name="Page-1" id="wRcSdKC8TBcQc0uevrIT">
    <mxGraphModel dx="969" dy="484" grid="1" gridSize="10" guides="1" tooltips="1" connect="1" arrows="1" fold="1" page="1" pageScale="1" pageWidth="850" pageHeight="1100" math="0" shadow="0">
      <root>
        <mxCell id="0" />
        <mxCell id="1" parent="0" />
        <mxCell id="jQr3ClIyY2CzBigqtrQ6-6" style="edgeStyle=orthogonalEdgeStyle;rounded=0;orthogonalLoop=1;jettySize=auto;html=1;" parent="1" source="EgmyeOnUa9uOQUDKkjH2-5" target="EgmyeOnUa9uOQUDKkjH2-4" edge="1">
          <mxGeometry relative="1" as="geometry" />
        </mxCell>
        <mxCell id="EgmyeOnUa9uOQUDKkjH2-5" value="&lt;span style=&quot;font-size: 15px;&quot;&gt;&lt;b&gt;Startup Script&lt;br&gt;&lt;/b&gt;&lt;/span&gt;" style="shape=image;html=1;verticalAlign=top;verticalLabelPosition=bottom;labelBackgroundColor=#ffffff;imageAspect=0;aspect=fixed;image=https://cdn1.iconfinder.com/data/icons/hawcons/32/699751-icon-105-document-file-exe-128.png" parent="1" vertex="1">
          <mxGeometry x="90" y="210" width="128" height="128" as="geometry" />
        </mxCell>
        <mxCell id="EgmyeOnUa9uOQUDKkjH2-12" value="" style="group" parent="1" vertex="1" connectable="0">
          <mxGeometry x="260" y="310" width="550" height="188" as="geometry" />
        </mxCell>
        <mxCell id="EgmyeOnUa9uOQUDKkjH2-1" value="&lt;b&gt;&lt;font style=&quot;font-size: 15px;&quot;&gt;ClipBoard Monitoring&lt;/font&gt;&lt;/b&gt;" style="sketch=0;pointerEvents=1;shadow=0;dashed=0;html=1;strokeColor=none;fillColor=#505050;labelPosition=center;verticalLabelPosition=bottom;verticalAlign=top;outlineConnect=0;align=center;shape=mxgraph.office.concepts.clipboard;" parent="EgmyeOnUa9uOQUDKkjH2-12" vertex="1">
          <mxGeometry x="230" width="92.31" height="120" as="geometry" />
        </mxCell>
        <mxCell id="EgmyeOnUa9uOQUDKkjH2-9" style="edgeStyle=orthogonalEdgeStyle;rounded=0;orthogonalLoop=1;jettySize=auto;html=1;" parent="EgmyeOnUa9uOQUDKkjH2-12" source="EgmyeOnUa9uOQUDKkjH2-4" target="EgmyeOnUa9uOQUDKkjH2-1" edge="1">
          <mxGeometry relative="1" as="geometry" />
        </mxCell>
        <mxCell id="EgmyeOnUa9uOQUDKkjH2-4" value="&lt;b&gt;&lt;font style=&quot;font-size: 15px;&quot;&gt;ClipBorard Copyer&lt;/font&gt;&lt;/b&gt;" style="shape=image;html=1;verticalAlign=top;verticalLabelPosition=bottom;labelBackgroundColor=#ffffff;imageAspect=0;aspect=fixed;image=https://cdn1.iconfinder.com/data/icons/hawcons/32/699751-icon-105-document-file-exe-128.png" parent="EgmyeOnUa9uOQUDKkjH2-12" vertex="1">
          <mxGeometry y="60" width="128" height="128" as="geometry" />
        </mxCell>
        <mxCell id="EgmyeOnUa9uOQUDKkjH2-10" value="&lt;b&gt;&lt;font style=&quot;font-size: 15px;&quot;&gt;Clipboard History&lt;/font&gt;&lt;/b&gt;" style="shape=image;html=1;verticalAlign=top;verticalLabelPosition=bottom;labelBackgroundColor=#ffffff;imageAspect=0;aspect=fixed;image=https://cdn2.iconfinder.com/data/icons/boxicons-solid-vol-2/24/bxs-file-txt-128.png" parent="EgmyeOnUa9uOQUDKkjH2-12" vertex="1">
          <mxGeometry x="410" y="48" width="140" height="140" as="geometry" />
        </mxCell>
        <mxCell id="EgmyeOnUa9uOQUDKkjH2-11" style="edgeStyle=orthogonalEdgeStyle;rounded=0;orthogonalLoop=1;jettySize=auto;html=1;" parent="EgmyeOnUa9uOQUDKkjH2-12" source="EgmyeOnUa9uOQUDKkjH2-1" target="EgmyeOnUa9uOQUDKkjH2-10" edge="1">
          <mxGeometry relative="1" as="geometry" />
        </mxCell>
        <mxCell id="jQr3ClIyY2CzBigqtrQ6-9" value="&lt;div style=&quot;&quot;&gt;&lt;b style=&quot;background-color: initial;&quot;&gt;&lt;font style=&quot;font-size: 15px;&quot;&gt;Move ClipBorad.exe to Target PC And Add To Startup Registe&lt;/font&gt;&lt;/b&gt;&lt;/div&gt;" style="rounded=0;whiteSpace=wrap;html=1;fillColor=#b0e3e6;strokeColor=#0e8088;align=center;" parent="1" vertex="1">
          <mxGeometry x="30" y="380" width="200" height="100" as="geometry" />
        </mxCell>
      </root>
    </mxGraphModel>
  </diagram>
</mxfile>
